<svg width="290" height="890" xmlns="http://www.w3.org/2000/svg" xmlns:xlink="http://www.w3.org/1999/xlink" overflow="hidden"><defs><clipPath id="clip0"><rect x="2810" y="690" width="290" height="890"/></clipPath></defs><g clip-path="url(#clip0)" transform="translate(-2810 -690)"><path d="M2866.59 1180.02C2866.59 1180.02 2878.49 1276.77 2930.06 1231.71L2980.3 1271.47C2980.3 1271.47 3004.09 1300.63 3035.83 1268.82 3035.83 1268.82 3041.12 1264.85 3042.44 1243.64 3042.44 1243.64 3039.8 1223.76 3058.3 1226.41 3058.3 1226.41 3082.1 1230.38 3080.78 1268.82 3080.78 1268.82 3074.17 1303.28 3063.59 1328.46 3053.02 1353.65 3049.05 1358.94 3060.95 1378.82 3072.85 1398.71 3131.02 1496.78 3078.14 1549.8 3078.14 1549.8 3030.54 1604.14 2887.75 1567.03 2887.75 1567.03 2802.59 1543.23 2810.52 1488.89 2810.52 1488.89 2814.08 1461.74 2832.22 1433.17 2832.22 1433.17 2861.31 1369.55 2852.06 1329.79L2829.58 1254.24C2829.58 1254.24 2811.07 1191.95 2852.06 1176.04 2852.05 1176.04 2866.59 1169.42 2866.59 1180.02Z" fill="#222421" fill-rule="evenodd"/><path d="M2906.2 1264.71C2906.2 1264.71 2918.16 1256.76 2932.77 1267.36 2932.77 1267.36 2983.23 1305.8 3012.45 1300.49 3012.45 1300.49 3040.34 1299.17 3046.98 1266.04 3046.98 1266.04 3052.29 1239.53 3061.59 1242.19 3061.59 1242.19 3081.51 1243.51 3073.54 1275.32 3073.54 1275.32 3068.54 1294.97 3059.98 1315.35 3053.02 1331.93 3041.81 1348.36 3044.19 1360.25 3046.09 1369.71 3056 1385.47 3063.14 1403.57 3074.29 1431.85 3084.17 1460.86 3084.17 1460.86 3084.17 1460.86 3096.12 1515.2 3058.93 1484.71 3058.93 1484.71 3043 1459.54 2999.17 1458.21L2922.14 1462.18C2922.14 1462.18 2894.25 1468.81 2888.94 1433.03 2888.94 1433.03 2884.38 1411.4 2895.34 1387.12 2896.2 1385.21 2897.17 1383.28 2898.24 1381.34 2912.85 1354.83 2919.48 1328.32 2912.85 1296.52 2912.85 1296.52 2894.25 1268.69 2906.2 1264.71Z" fill="#DCE0CF" fill-rule="evenodd"/><path d="M3010.77 1499.16C3010.77 1499.16 3005.48 1481.74 3022.68 1483.07 3022.68 1483.07 3059.73 1491.11 3069 1527.3 3069 1527.31 3051.79 1539.36 3010.77 1499.16Z" fill="#ABB4B3" fill-rule="evenodd"/><path d="M3053 1449C3053 1455.63 3047.63 1461 3041 1461 3034.37 1461 3029 1455.63 3029 1449 3029 1442.37 3034.37 1437 3041 1437 3047.63 1437 3053 1442.37 3053 1449Z" fill="#D3CD9B" fill-rule="evenodd"/><path d="M3049 1449C3049 1453.42 3045.42 1457 3041 1457 3036.58 1457 3033 1453.42 3033 1449 3033 1444.58 3036.58 1441 3041 1441 3045.42 1441 3049 1444.58 3049 1449Z" fill="#E3DFC2" fill-rule="evenodd"/><path d="M3018 1431C3018 1437.63 3012.63 1443 3006 1443 2999.37 1443 2994 1437.63 2994 1431 2994 1424.37 2999.37 1419 3006 1419 3012.63 1419 3018 1424.37 3018 1431Z" fill="#D3CD9B" fill-rule="evenodd"/><path d="M3013 1431C3013 1435.42 3009.64 1439 3005.5 1439 3001.36 1439 2998 1435.42 2998 1431 2998 1426.58 3001.36 1423 3005.5 1423 3009.64 1423 3013 1426.58 3013 1431Z" fill="#E3DFC2" fill-rule="evenodd"/><path d="M3083 1474.01C3083 1480.64 3077.62 1486 3071 1486 3064.37 1486 3059 1480.63 3059 1474.01 3059 1467.37 3064.37 1462 3071 1462 3077.62 1462 3083 1467.38 3083 1474.01Z" fill="#D3CD9B" fill-rule="evenodd"/><path d="M3079 1474.01C3079 1478.42 3075.42 1482 3071 1482 3066.58 1482 3063 1478.42 3063 1474.01 3063 1469.58 3066.58 1466 3071 1466 3075.42 1466 3079 1469.59 3079 1474.01Z" fill="#E3DFC2" fill-rule="evenodd"/><path d="M2994.83 1455C2994.32 1455 2993.8 1454.93 2993.3 1454.76 2990.8 1453.94 2989.44 1451.33 2990.22 1448.89 2990.66 1447.38 2995.86 1427.31 2999.36 1413.76L2999.36 1355.71C2999.36 1353.11 3001.52 1351 3004.18 1351 3006.84 1351 3009 1353.11 3009 1355.71L3008.85 1415.5C3004.71 1431.54 2999.71 1450.86 2999.39 1451.78 2998.72 1453.75 2996.85 1455 2994.83 1455Z" fill="#858371" fill-rule="evenodd"/><path d="M2999.52 1451.78C2999.83 1450.85 3004.77 1431.5 3008.85 1415.43L3009 1355.53C3009 1353.36 3007.52 1351.56 3005.51 1351L3005.51 1413.33 2995 1455C2996.99 1455 2998.85 1453.75 2999.52 1451.78Z" fill="#636254" fill-rule="evenodd"/><path d="M3003 1477.57C3003 1482.79 2998.78 1487 2993.57 1487L2930.43 1487C2925.22 1487 2921 1482.79 2921 1477.57L2921 1459.43C2921 1454.22 2925.22 1450 2930.43 1450L2993.57 1450C2998.78 1450 3003 1454.22 3003 1459.43L3003 1477.57Z" fill="#ABB4B3" fill-rule="evenodd"/><path d="M2940 1474.06C2940 1475.69 2938.66 1477 2937 1477L2937 1477C2935.35 1477 2934 1475.69 2934 1474.06L2934 1462.93C2934 1461.31 2935.34 1460 2937 1460L2937 1460C2938.65 1460 2940 1461.32 2940 1462.93L2940 1474.06Z" fill="#7C8281" fill-rule="evenodd"/><path d="M2951 1474.06C2951 1475.69 2949.66 1477 2948 1477L2948 1477C2946.34 1477 2945 1475.69 2945 1474.06L2945 1462.93C2945 1461.31 2946.35 1460 2948 1460L2948 1460C2949.66 1460 2951 1461.32 2951 1462.93L2951 1474.06Z" fill="#7C8281" fill-rule="evenodd"/><path d="M2961 1474.06C2961 1475.69 2959.66 1477 2958 1477L2958 1477C2956.35 1477 2955 1475.69 2955 1474.06L2955 1462.93C2955 1461.31 2956.34 1460 2958 1460L2958 1460C2959.65 1460 2961 1461.32 2961 1462.93L2961 1474.06Z" fill="#7C8281" fill-rule="evenodd"/><path d="M2972 1474.06C2972 1475.69 2970.65 1477 2969 1477L2969 1477C2967.35 1477 2966 1475.69 2966 1474.06L2966 1462.93C2966 1461.31 2967.35 1460 2969 1460L2969 1460C2970.65 1460 2972 1461.32 2972 1462.93L2972 1474.06Z" fill="#7C8281" fill-rule="evenodd"/><path d="M2982 1474.06C2982 1475.69 2980.66 1477 2979 1477L2979 1477C2977.34 1477 2976 1475.69 2976 1474.06L2976 1462.93C2976 1461.31 2977.34 1460 2979 1460L2979 1460C2980.66 1460 2982 1461.32 2982 1462.93L2982 1474.06Z" fill="#7C8281" fill-rule="evenodd"/><path d="M2993 1474.06C2993 1475.69 2991.65 1477 2990 1477L2990 1477C2988.35 1477 2987 1475.69 2987 1474.06L2987 1462.93C2987 1461.31 2988.34 1460 2990 1460L2990 1460C2991.65 1460 2993 1461.32 2993 1462.93L2993 1474.06Z" fill="#7C8281" fill-rule="evenodd"/><path d="M2989 1421C2989 1425.42 2985.47 1429 2981.11 1429L2931.89 1429C2927.53 1429 2924 1425.42 2924 1421L2924 1421C2924 1416.58 2927.53 1413 2931.89 1413L2981.11 1413C2985.47 1413 2989 1416.58 2989 1421L2989 1421Z" fill="#C7C3AA" fill-rule="evenodd"/><path d="M2936 1420.5C2936 1421.88 2934.66 1423 2933 1423 2931.34 1423 2930 1421.88 2930 1420.5 2930 1419.11 2931.34 1418 2933 1418 2934.65 1418 2936 1419.11 2936 1420.5Z" fill="#7C8281" fill-rule="evenodd"/><path d="M2946 1420.5C2946 1421.88 2944.66 1423 2943 1423 2941.34 1423 2940 1421.88 2940 1420.5 2940 1419.11 2941.34 1418 2943 1418 2944.66 1418 2946 1419.11 2946 1420.5Z" fill="#7C8281" fill-rule="evenodd"/><path d="M2955 1420.5C2955 1421.88 2953.88 1423 2952.5 1423 2951.12 1423 2950 1421.88 2950 1420.5 2950 1419.11 2951.12 1418 2952.5 1418 2953.88 1418 2955 1419.11 2955 1420.5Z" fill="#7C8281" fill-rule="evenodd"/><path d="M2965 1420.5C2965 1421.88 2963.88 1423 2962.5 1423 2961.12 1423 2960 1421.88 2960 1420.5 2960 1419.11 2961.12 1418 2962.5 1418 2963.88 1418 2965 1419.11 2965 1420.5Z" fill="#7C8281" fill-rule="evenodd"/><path d="M2975 1420.5C2975 1421.88 2973.88 1423 2972.5 1423 2971.12 1423 2970 1421.88 2970 1420.5 2970 1419.11 2971.12 1418 2972.5 1418 2973.88 1418 2975 1419.11 2975 1420.5Z" fill="#7C8281" fill-rule="evenodd"/><path d="M2985 1420.5C2985 1421.88 2983.88 1423 2982.5 1423 2981.12 1423 2980 1421.88 2980 1420.5 2980 1419.11 2981.12 1418 2982.5 1418 2983.88 1418 2985 1419.11 2985 1420.5Z" fill="#7C8281" fill-rule="evenodd"/><path d="M2989 1373C2989 1377.42 2985.47 1381 2981.11 1381L2931.89 1381C2927.53 1381 2924 1377.42 2924 1373L2924 1373C2924 1368.58 2927.53 1365 2931.89 1365L2981.11 1365C2985.47 1365 2989 1368.58 2989 1373L2989 1373Z" fill="#C7C3AA" fill-rule="evenodd"/><path d="M2936 1373C2936 1374.66 2934.66 1376 2933 1376 2931.34 1376 2930 1374.66 2930 1373 2930 1371.34 2931.34 1370 2933 1370 2934.65 1370 2936 1371.34 2936 1373Z" fill="#7C8281" fill-rule="evenodd"/><path d="M2946 1373C2946 1374.66 2944.66 1376 2943 1376 2941.34 1376 2940 1374.66 2940 1373 2940 1371.34 2941.34 1370 2943 1370 2944.66 1370 2946 1371.34 2946 1373Z" fill="#7C8281" fill-rule="evenodd"/><path d="M2955 1373C2955 1374.66 2953.88 1376 2952.5 1376 2951.12 1376 2950 1374.66 2950 1373 2950 1371.34 2951.12 1370 2952.5 1370 2953.88 1370 2955 1371.34 2955 1373Z" fill="#7C8281" fill-rule="evenodd"/><path d="M2965 1373C2965 1374.66 2963.88 1376 2962.5 1376 2961.12 1376 2960 1374.66 2960 1373 2960 1371.34 2961.12 1370 2962.5 1370 2963.88 1370 2965 1371.34 2965 1373Z" fill="#7C8281" fill-rule="evenodd"/><path d="M2975 1373C2975 1374.66 2973.88 1376 2972.5 1376 2971.12 1376 2970 1374.66 2970 1373 2970 1371.34 2971.12 1370 2972.5 1370 2973.88 1370 2975 1371.34 2975 1373Z" fill="#7C8281" fill-rule="evenodd"/><path d="M2985 1373C2985 1374.66 2983.88 1376 2982.5 1376 2981.12 1376 2980 1374.66 2980 1373 2980 1371.34 2981.12 1370 2982.5 1370 2983.88 1370 2985 1371.34 2985 1373Z" fill="#7C8281" fill-rule="evenodd"/><path d="M2989 1319.5C2989 1323.64 2985.47 1327 2981.11 1327L2931.89 1327C2927.53 1327 2924 1323.64 2924 1319.5L2924 1319.5C2924 1315.36 2927.53 1312 2931.89 1312L2981.11 1312C2985.47 1312 2989 1315.36 2989 1319.5L2989 1319.5Z" fill="#C7C3AA" fill-rule="evenodd"/><path d="M2936 1319.5C2936 1320.88 2934.66 1322 2933 1322 2931.34 1322 2930 1320.88 2930 1319.5 2930 1318.12 2931.34 1317 2933 1317 2934.65 1317 2936 1318.12 2936 1319.5Z" fill="#7C8281" fill-rule="evenodd"/><path d="M2946 1319.5C2946 1320.88 2944.66 1322 2943 1322 2941.34 1322 2940 1320.88 2940 1319.5 2940 1318.12 2941.34 1317 2943 1317 2944.66 1317 2946 1318.12 2946 1319.5Z" fill="#7C8281" fill-rule="evenodd"/><path d="M2955 1319.5C2955 1320.88 2953.88 1322 2952.5 1322 2951.12 1322 2950 1320.88 2950 1319.5 2950 1318.12 2951.12 1317 2952.5 1317 2953.88 1317 2955 1318.12 2955 1319.5Z" fill="#7C8281" fill-rule="evenodd"/><path d="M2965 1319.5C2965 1320.88 2963.88 1322 2962.5 1322 2961.12 1322 2960 1320.88 2960 1319.5 2960 1318.12 2961.12 1317 2962.5 1317 2963.88 1317 2965 1318.12 2965 1319.5Z" fill="#7C8281" fill-rule="evenodd"/><path d="M2975 1319.5C2975 1320.88 2973.88 1322 2972.5 1322 2971.12 1322 2970 1320.88 2970 1319.5 2970 1318.12 2971.12 1317 2972.5 1317 2973.88 1317 2975 1318.12 2975 1319.5Z" fill="#7C8281" fill-rule="evenodd"/><path d="M2985 1319.5C2985 1320.88 2983.88 1322 2982.5 1322 2981.12 1322 2980 1320.88 2980 1319.5 2980 1318.12 2981.12 1317 2982.5 1317 2983.88 1317 2985 1318.12 2985 1319.5Z" fill="#7C8281" fill-rule="evenodd"/><path d="M3025 1505.58C3025 1505.58 3028.41 1494.69 3035.55 1495.01 3035.55 1495.01 3053.86 1505.9 3061 1519.99 3061 1519.99 3059.14 1532.8 3025 1505.58Z" fill="#858C8B" fill-rule="evenodd"/><path d="M3026.21 1504.4C3026.21 1504.4 3039.18 1507.42 3035.26 1495.04 3035.26 1495.04 3026.81 1493.83 3025 1505" fill="#6F7574" fill-rule="evenodd"/><path d="M2930 1290.99 2938.48 859 2976.64 859 2983 1294.14C2983 1294.14 2954.38 1304.65 2930 1290.99Z" fill="#DFB667" fill-rule="evenodd"/><path d="M2938.2 859 2925.59 844.276C2925.59 844.276 2921.39 837.969 2926.64 821.139L2967.63 704.405C2967.63 704.405 2977.09 682.321 3003.37 692.84 3003.37 692.84 3023.34 706.511 3014.93 729.645 3014.93 729.645 3010.73 735.955 3000.22 742.266 2989.71 748.573 2987.61 749.626 2992.86 760.142 2998.12 770.657 3014.93 817.981 3009.68 832.704 3009.68 832.704 3003.37 836.913 2999.17 837.962 2994.96 839.012 2974.99 843.22 2976.04 858.993" fill="#CC795E" fill-rule="evenodd"/><path d="M2953.37 718.027 2955.44 712.986 2963.84 716.432 2961.77 721.473Z" fill="#747875" fill-rule="evenodd"/><path d="M2957.08 718.877C2955.68 722.242 2951.74 723.873 2948.26 722.53L2948.26 722.53C2944.79 721.18 2943.1 717.366 2944.49 714.001L2946.92 708.121C2948.32 704.757 2952.26 703.125 2955.74 704.472L2955.74 704.472C2959.21 705.822 2960.9 709.636 2959.51 713.001L2957.08 718.877Z" fill="#A7ACA8" fill-rule="evenodd"/><path d="M2945.7 739.404 2947.77 734.367 2956.17 737.817 2954.1 742.854Z" fill="#747875" fill-rule="evenodd"/><path d="M2949.26 739.876C2947.95 743.24 2944.25 744.875 2940.99 743.528L2940.99 743.528C2937.74 742.179 2936.15 738.365 2937.46 735.001L2939.74 729.121C2941.04 725.756 2944.74 724.125 2948 725.472L2948 725.472C2951.26 726.819 2952.85 730.635 2951.54 734L2949.26 739.876Z" fill="#A7ACA8" fill-rule="evenodd"/><path d="M2939.11 761.113 2941.18 756.076 2949.57 759.525 2947.5 764.562Z" fill="#747875" fill-rule="evenodd"/><path d="M2943.08 761.877C2941.69 765.239 2937.74 766.873 2934.26 765.53L2934.26 765.53C2930.79 764.18 2929.1 760.366 2930.49 757.001L2932.92 751.121C2934.31 747.76 2938.26 746.125 2941.74 747.472L2941.74 747.472C2945.22 748.822 2946.9 752.636 2945.51 756.001L2943.08 761.877Z" fill="#A7ACA8" fill-rule="evenodd"/><path d="M2932.57 782.83 2934.64 777.789 2943.04 781.235 2940.97 786.275Z" fill="#747875" fill-rule="evenodd"/><path d="M2936.26 783.88C2934.95 787.244 2931.25 788.874 2927.99 787.528L2927.99 787.528C2924.73 786.178 2923.15 782.366 2924.46 779.002L2926.74 773.123C2928.05 769.759 2931.74 768.125 2935.01 769.471L2935.01 769.471C2938.27 770.818 2939.85 774.634 2938.54 777.998L2936.26 783.88Z" fill="#A7ACA8" fill-rule="evenodd"/><path d="M2926.06 804.515 2928.13 799.474 2936.52 802.919 2934.45 807.96Z" fill="#747875" fill-rule="evenodd"/><path d="M2930.08 804.877C2928.68 808.242 2924.74 809.873 2921.26 808.53L2921.26 808.53C2917.78 807.179 2916.1 803.365 2917.49 800L2919.92 794.123C2921.31 790.758 2925.26 789.127 2928.74 790.47L2928.74 790.47C2932.22 791.82 2933.9 795.635 2932.51 799L2930.08 804.877Z" fill="#A7ACA8" fill-rule="evenodd"/><path d="M2919.42 826.246 2921.49 821.206 2929.89 824.652 2927.82 829.692Z" fill="#747875" fill-rule="evenodd"/><path d="M2923.26 826.877C2921.96 830.242 2918.26 831.873 2914.99 830.53L2914.99 830.53C2911.73 829.18 2910.15 825.363 2911.46 822.002L2913.74 816.122C2915.04 812.758 2918.74 811.127 2922.01 812.47L2922.01 812.47C2925.26 813.82 2926.85 817.634 2925.54 820.998L2923.26 826.877Z" fill="#A7ACA8" fill-rule="evenodd"/><path d="M2939 859 2977 859 2977 870 2939 870Z" fill="#DCE0CF" fill-rule="evenodd"/><path d="M2934 1034 2979 1034 2979 1037 2934 1037Z" fill="#85877D" fill-rule="evenodd"/><path d="M2934 1016 2979 1016 2979 1018 2934 1018Z" fill="#85877D" fill-rule="evenodd"/><path d="M2934 999 2979 999 2979 1001 2934 1001Z" fill="#85877D" fill-rule="evenodd"/><path d="M2935 982 2979 982 2979 984 2935 984Z" fill="#85877D" fill-rule="evenodd"/><path d="M2936 956 2979 956 2979 959 2936 959Z" fill="#85877D" fill-rule="evenodd"/><path d="M2936 939 2979 939 2979 941 2936 941Z" fill="#85877D" fill-rule="evenodd"/><path d="M2936 908 2979 908 2979 911 2936 911Z" fill="#85877D" fill-rule="evenodd"/><path d="M2936 885 2979 885 2979 887 2936 887Z" fill="#85877D" fill-rule="evenodd"/><path d="M2934 1076 2980 1076 2980 1079 2934 1079Z" fill="#85877D" fill-rule="evenodd"/><path d="M2934 1057 2980 1057 2980 1060 2934 1060Z" fill="#85877D" fill-rule="evenodd"/><path d="M2934 1096 2980 1096 2980 1099 2934 1099Z" fill="#85877D" fill-rule="evenodd"/><path d="M2934 1128 2981 1128 2981 1132 2934 1132Z" fill="#85877D" fill-rule="evenodd"/><path d="M2932 1151 2982 1151 2982 1155 2932 1155Z" fill="#85877D" fill-rule="evenodd"/><path d="M2931 1172 2982 1172 2982 1177 2931 1177Z" fill="#85877D" fill-rule="evenodd"/><path d="M2931 1202 2982 1202 2982 1206 2931 1206Z" fill="#85877D" fill-rule="evenodd"/><path d="M2931 1187 2982 1187 2982 1192 2931 1192Z" fill="#85877D" fill-rule="evenodd"/><path d="M2931 1230 2982 1230 2982 1235 2931 1235Z" fill="#85877D" fill-rule="evenodd"/><path d="M2931 1216 2982 1216 2982 1220 2931 1220Z" fill="#85877D" fill-rule="evenodd"/><path d="M2931 1242 2982 1242 2982 1247 2931 1247Z" fill="#85877D" fill-rule="evenodd"/><path d="M2931 1256 2982 1256 2982 1261 2931 1261Z" fill="#85877D" fill-rule="evenodd"/><path d="M2931 1271 2982 1271 2982 1276 2931 1276Z" fill="#85877D" fill-rule="evenodd"/><path d="M2960 1265.5C2960 1267.99 2958.43 1270 2956.5 1270 2954.57 1270 2953 1267.99 2953 1265.5 2953 1263.02 2954.57 1261 2956.5 1261 2958.43 1261 2960 1263.01 2960 1265.5Z" fill="#4D3535" fill-rule="evenodd"/><path d="M2960 1238C2960 1240.21 2958.43 1242 2956.5 1242 2954.57 1242 2953 1240.21 2953 1238 2953 1235.79 2954.57 1234 2956.5 1234 2958.44 1234 2960 1235.79 2960 1238Z" fill="#4D3535" fill-rule="evenodd"/><path d="M2960 1211C2960 1213.22 2958.43 1215 2956.5 1215 2954.57 1215 2953 1213.21 2953 1211 2953 1208.79 2954.57 1207 2956.5 1207 2958.44 1207 2960 1208.79 2960 1211Z" fill="#4D3535" fill-rule="evenodd"/><path d="M2960 1181C2960 1183.21 2958.43 1185 2956.5 1185 2954.57 1185 2953 1183.21 2953 1181 2953 1178.79 2954.57 1177 2956.5 1177 2958.44 1177 2960 1178.79 2960 1181Z" fill="#4D3535" fill-rule="evenodd"/><path d="M2960 1048C2960 1050.21 2958.43 1052 2956.5 1052 2954.57 1052 2953 1050.21 2953 1048 2953 1045.79 2954.57 1044 2956.5 1044 2958.44 1044 2960 1045.79 2960 1048Z" fill="#4D3535" fill-rule="evenodd"/><path d="M2960 1008.5C2960 1010.99 2958.43 1013 2956.5 1013 2954.57 1013 2953 1010.99 2953 1008.5 2953 1006.01 2954.57 1004 2956.5 1004 2958.44 1004 2960 1006.01 2960 1008.5Z" fill="#4D3535" fill-rule="evenodd"/><path d="M2960 971.5C2960 973.986 2958.43 976 2956.5 976 2954.57 976 2953 973.986 2953 971.5 2953 969.014 2954.57 967 2956.5 967 2958.44 967 2960 969.014 2960 971.5Z" fill="#4D3535" fill-rule="evenodd"/><path d="M2960 928C2960 930.21 2958.43 932 2956.5 932 2954.57 932 2953 930.207 2953 928 2953 925.79 2954.57 924 2956.5 924 2958.44 924 2960 925.79 2960 928Z" fill="#4D3535" fill-rule="evenodd"/><path d="M2950 1115C2950 1117.21 2948.21 1119 2946 1119 2943.79 1119 2942 1117.21 2942 1115 2942 1112.79 2943.79 1111 2946 1111 2948.21 1111 2950 1112.79 2950 1115Z" fill="#4D3535" fill-rule="evenodd"/><path d="M2972 1115C2972 1117.21 2970.21 1119 2968 1119 2965.79 1119 2964 1117.21 2964 1115 2964 1112.79 2965.79 1111 2968 1111 2970.21 1111 2972 1112.79 2972 1115Z" fill="#4D3535" fill-rule="evenodd"/><path d="M2937 832 2937 1463" stroke="#524326" stroke-width="1.57566" stroke-miterlimit="8" fill="none" fill-rule="evenodd"/><path d="M2945 811 2945 1463" stroke="#524326" stroke-width="1.57566" stroke-miterlimit="8" fill="none" fill-rule="evenodd"/><path d="M2954 786 2954 1463" stroke="#524326" stroke-width="1.57566" stroke-miterlimit="8" fill="none" fill-rule="evenodd"/><path d="M2962 765 2962 1463" stroke="#524326" stroke-width="1.57566" stroke-miterlimit="8" fill="none" fill-rule="evenodd"/><path d="M2969 747 2969 1463" stroke="#524326" stroke-width="1.57566" stroke-miterlimit="8" fill="none" fill-rule="evenodd"/><path d="M2978 724 2978 1463" stroke="#524326" stroke-width="1.57566" stroke-miterlimit="8" fill="none" fill-rule="evenodd"/><path d="M2979 721.999C2979 725.314 2976.31 728 2973 728 2969.69 728 2967 725.314 2967 721.999 2967 718.686 2969.69 716 2973 716 2976.31 716 2979 718.686 2979 721.999Z" fill="#747875" fill-rule="evenodd"/><path d="M2977 722C2977 724.21 2975.21 726 2973 726 2970.79 726 2969 724.207 2969 722 2969 719.793 2970.79 718 2973 718 2975.21 718 2977 719.793 2977 722Z" fill="#A7ACA8" fill-rule="evenodd"/><path d="M2972 743.002C2972 746.314 2969.31 749 2966 749 2962.69 749 2960 746.314 2960 743.002 2960 739.686 2962.69 737 2966 737 2969.32 737.004 2972 739.686 2972 743.002Z" fill="#747875" fill-rule="evenodd"/><path d="M2970 743C2970 745.207 2968.21 747 2966 747 2963.79 747 2962 745.207 2962 743 2962 740.79 2963.79 739 2966 739 2968.21 739 2970 740.793 2970 743Z" fill="#A7ACA8" fill-rule="evenodd"/><path d="M2965 764.502C2965 768.09 2962.09 771 2958.5 771 2954.91 771 2952 768.09 2952 764.502 2952 760.91 2954.91 758 2958.5 758 2962.09 758 2965 760.91 2965 764.502Z" fill="#747875" fill-rule="evenodd"/><path d="M2962 764.5C2962 766.434 2960.43 768 2958.5 768 2956.57 768 2955 766.434 2955 764.5 2955 762.566 2956.57 761 2958.5 761 2960.43 761 2962 762.566 2962 764.5Z" fill="#A7ACA8" fill-rule="evenodd"/><path d="M2957 786C2957 789.313 2954.32 792 2951 792 2947.69 792 2945 789.313 2945 786 2945 782.683 2947.69 780 2951 780 2954.32 780 2957 782.687 2957 786Z" fill="#747875" fill-rule="evenodd"/><path d="M2955 786C2955 788.211 2953.21 790 2951 790 2948.79 790 2947 788.211 2947 786 2947 783.79 2948.79 782 2951 782 2953.21 782 2955 783.793 2955 786Z" fill="#A7ACA8" fill-rule="evenodd"/><path d="M2950 807.002C2950 810.314 2947.31 813 2944 813 2940.69 813 2938 810.314 2938 807.002 2938 803.686 2940.69 801 2944 801 2947.31 801 2950 803.686 2950 807.002Z" fill="#747875" fill-rule="evenodd"/><path d="M2948 807.002C2948 809.213 2946.21 811 2944 811 2941.79 811 2940 809.21 2940 807.002 2940 804.791 2941.79 803 2944 803 2946.21 803 2948 804.791 2948 807.002Z" fill="#A7ACA8" fill-rule="evenodd"/><path d="M2943 828.5C2943 832.089 2940.31 835 2937 835 2933.68 835 2931 832.089 2931 828.5 2931 824.907 2933.68 822 2937 822 2940.31 821.996 2943 824.907 2943 828.5Z" fill="#747875" fill-rule="evenodd"/><path d="M2941 828.5C2941 830.434 2939.21 832 2937 832 2934.79 832 2933 830.434 2933 828.5 2933 826.566 2934.79 825 2937 825 2939.21 825 2941 826.566 2941 828.5Z" fill="#A7ACA8" fill-rule="evenodd"/></g></svg>