<svg width="291" height="891" xmlns="http://www.w3.org/2000/svg" xmlns:xlink="http://www.w3.org/1999/xlink" overflow="hidden"><defs><clipPath id="clip0"><rect x="2293" y="687" width="291" height="891"/></clipPath></defs><g clip-path="url(#clip0)" transform="translate(-2293 -687)"><path d="M2405.31 811.502 2406.97 808.278 2415.76 812.807 2414.09 816.031Z" fill="#747875" fill-rule="evenodd"/><path d="M2405.75 808.666C2408.69 810.182 2409.85 813.8 2408.33 816.745 2406.82 819.691 2403.2 820.85 2400.25 819.334 2397.31 817.818 2396.15 814.2 2397.67 811.255 2399.18 808.309 2402.8 807.15 2405.75 808.666Z" fill="#A7ACA8" fill-rule="evenodd"/><path d="M2410.02 800.611C2412.72 802 2413.78 805.317 2412.39 808.017 2411 810.717 2407.68 811.779 2404.98 810.39 2402.28 809 2401.22 805.684 2402.61 802.983 2404 800.283 2407.32 799.221 2410.02 800.611Z" fill="#A7ACA8" fill-rule="evenodd"/><path d="M2403.02 801.613C2405.72 803.002 2406.78 806.318 2405.39 809.018 2404 811.717 2400.68 812.779 2397.98 811.39 2395.28 810 2394.22 806.685 2395.61 803.985 2397 801.282 2400.32 800.22 2403.02 801.613Z" fill="#A7ACA8" fill-rule="evenodd"/><path d="M2413.91 784.772 2415.57 781.548 2424.36 786.076 2422.7 789.3Z" fill="#747875" fill-rule="evenodd"/><path d="M2414.02 781.666C2416.72 783.182 2417.78 786.8 2416.39 789.746 2415 792.692 2411.68 793.85 2408.98 792.334 2406.28 790.818 2405.22 787.2 2406.61 784.254 2408 781.309 2411.32 780.15 2414.02 781.666Z" fill="#A7ACA8" fill-rule="evenodd"/><path d="M2418.75 773.666C2421.69 775.182 2422.85 778.801 2421.33 781.747 2419.81 784.693 2416.2 785.851 2413.25 784.332 2410.31 782.816 2409.15 779.197 2410.67 776.252 2412.19 773.309 2415.8 772.151 2418.75 773.666Z" fill="#A7ACA8" fill-rule="evenodd"/><path d="M2411.75 774.666C2414.69 776.182 2415.85 779.8 2414.33 782.746 2412.82 785.692 2409.2 786.85 2406.25 785.334 2403.31 783.818 2402.15 780.201 2403.67 777.255 2405.19 774.309 2408.8 773.15 2411.75 774.666Z" fill="#A7ACA8" fill-rule="evenodd"/><path d="M2423.12 757.462 2424.79 754.238 2433.57 758.769 2431.91 761.993Z" fill="#747875" fill-rule="evenodd"/><path d="M2423.75 754.666C2426.69 756.182 2427.85 759.8 2426.33 762.745 2424.82 765.691 2421.2 766.85 2418.25 765.334 2415.31 763.818 2414.15 760.2 2415.67 757.254 2417.18 754.308 2420.8 753.15 2423.75 754.666Z" fill="#A7ACA8" fill-rule="evenodd"/><path d="M2427.75 746.611C2430.69 748 2431.85 751.317 2430.33 754.017 2428.82 756.717 2425.2 757.779 2422.25 756.389 2419.31 755 2418.15 751.684 2419.67 748.983 2421.18 746.283 2424.8 745.221 2427.75 746.611Z" fill="#A7ACA8" fill-rule="evenodd"/><path d="M2421.02 747.612C2423.72 749.001 2424.78 752.317 2423.39 755.017 2422 757.717 2418.68 758.779 2415.98 757.39 2413.28 756 2412.22 752.684 2413.61 749.984 2415 747.284 2418.32 746.219 2421.02 747.612Z" fill="#A7ACA8" fill-rule="evenodd"/><path d="M2436.3 723.834 2437.97 720.61 2446.75 725.141 2445.09 728.365Z" fill="#747875" fill-rule="evenodd"/><path d="M2436.75 720.666C2439.69 722.182 2440.85 725.8 2439.33 728.745 2437.82 731.691 2434.2 732.85 2431.25 731.334 2428.31 729.818 2427.15 726.2 2428.67 723.255 2430.19 720.309 2433.8 719.15 2436.75 720.666Z" fill="#A7ACA8" fill-rule="evenodd"/><path d="M2441.02 712.666C2443.72 714.182 2444.78 717.8 2443.39 720.745 2442 723.691 2438.68 724.85 2435.98 723.334 2433.28 721.818 2432.22 718.2 2433.61 715.254 2435 712.308 2438.32 711.15 2441.02 712.666Z" fill="#A7ACA8" fill-rule="evenodd"/><path d="M2434.02 713.668C2436.72 715.184 2437.78 718.801 2436.39 721.746 2435 724.692 2431.68 725.85 2428.98 724.334 2426.28 722.819 2425.22 719.201 2426.61 716.256 2428 713.307 2431.31 712.149 2434.02 713.668Z" fill="#A7ACA8" fill-rule="evenodd"/><path d="M2349.79 1178.02C2349.79 1178.02 2361.74 1274.77 2413.48 1229.71L2463.89 1269.47C2463.89 1269.47 2487.77 1298.63 2519.61 1266.82 2519.61 1266.82 2524.92 1262.85 2526.24 1241.64 2526.24 1241.64 2523.59 1221.76 2542.16 1224.41 2542.16 1224.41 2566.04 1228.38 2564.72 1266.82 2564.72 1266.82 2558.08 1301.28 2547.47 1326.46 2536.86 1351.65 2532.87 1356.94 2544.82 1376.82 2556.76 1396.71 2615.13 1494.78 2562.06 1547.8 2562.06 1547.8 2514.3 1602.14 2371.02 1565.03 2371.02 1565.03 2285.56 1541.23 2293.52 1486.89 2293.52 1486.89 2297.09 1459.74 2315.3 1431.17 2315.3 1431.17 2344.49 1367.55 2335.2 1327.79L2312.65 1252.24C2312.65 1252.24 2294.08 1189.95 2335.2 1174.04 2335.2 1174.04 2349.79 1167.42 2349.79 1178.02Z" fill="#2E75B6" fill-rule="evenodd"/><path d="M2390.18 1262.77C2390.18 1262.77 2402.11 1254.8 2416.7 1265.43 2416.7 1265.43 2467.09 1303.96 2496.26 1298.64 2496.26 1298.64 2524.11 1297.32 2530.74 1264.1 2530.74 1264.1 2536.05 1237.53 2545.33 1240.19 2545.33 1240.19 2562.18 1244.54 2554.23 1276.43 2554.23 1276.43 2552.65 1298.53 2543.2 1316.7 2531.25 1339.63 2525.81 1361.31 2532.16 1372.76 2547.92 1401.18 2567.87 1459.41 2567.87 1459.41 2567.87 1459.41 2580.67 1516.34 2543.5 1481.97 2543.5 1481.97 2526.76 1458.08 2483 1456.75L2406.09 1460.74C2406.09 1460.74 2378.24 1467.38 2372.94 1431.51 2372.94 1431.51 2368.38 1409.83 2379.33 1385.49 2380.2 1383.57 2381.15 1381.64 2382.22 1379.69 2396.81 1353.12 2403.44 1326.54 2396.81 1294.66 2396.8 1294.66 2378.24 1266.76 2390.18 1262.77Z" fill="#F2F2F2" fill-rule="evenodd"/><path d="M2537 1447C2537 1453.63 2531.63 1459 2525 1459 2518.38 1459 2513 1453.63 2513 1447 2513 1440.37 2518.37 1435 2525 1435 2531.63 1435 2537 1440.37 2537 1447Z" fill="#D3CD9B" fill-rule="evenodd"/><path d="M2533 1447C2533 1451.42 2529.42 1455 2525 1455 2520.58 1455 2517 1451.42 2517 1447 2517 1442.58 2520.58 1439 2525 1439 2529.42 1439 2533 1442.58 2533 1447Z" fill="#E3DFC2" fill-rule="evenodd"/><path d="M2501 1429C2501 1435.63 2495.63 1441 2489 1441 2482.37 1441 2477 1435.63 2477 1429 2477 1422.37 2482.37 1417 2489 1417 2495.62 1417 2501 1422.37 2501 1429Z" fill="#D3CD9B" fill-rule="evenodd"/><path d="M2497 1429C2497 1433.42 2493.42 1437 2489 1437 2484.58 1437 2481 1433.42 2481 1429 2481 1424.58 2484.58 1421 2489 1421 2493.42 1421 2497 1424.58 2497 1429Z" fill="#E3DFC2" fill-rule="evenodd"/><path d="M2562 1472C2562 1475.87 2558.87 1479 2555 1479 2551.14 1479 2548 1475.87 2548 1472 2548 1468.13 2551.13 1465 2555 1465 2558.87 1465 2562 1468.14 2562 1472Z" fill="#B5B5B5" fill-rule="evenodd"/><path d="M2559 1472.5C2559 1474.99 2556.98 1477 2554.5 1477 2552.01 1477 2550 1474.99 2550 1472.5 2550 1470.01 2552.02 1468 2554.5 1468 2556.98 1468 2559 1470.01 2559 1472.5Z" fill-rule="evenodd"/><path d="M2476 1476.32C2476 1481.67 2472.34 1486 2467.83 1486L2413.17 1486C2408.66 1486 2405 1481.67 2405 1476.32L2405 1457.68C2405 1452.34 2408.66 1448 2413.17 1448L2467.83 1448C2472.34 1448 2476 1452.34 2476 1457.68L2476 1476.32Z" fill="#ABB4B3" fill-rule="evenodd"/><path d="M2427 1472.06C2427 1473.69 2425.65 1475 2424 1475L2424 1475C2422.35 1475 2421 1473.69 2421 1472.06L2421 1460.93C2421 1459.31 2422.34 1458 2424 1458L2424 1458C2425.65 1458 2427 1459.32 2427 1460.93L2427 1472.06Z" fill="#7C8281" fill-rule="evenodd"/><path d="M2438 1472.06C2438 1473.69 2436.66 1475 2435 1475L2435 1475C2433.35 1475 2432 1473.69 2432 1472.06L2432 1460.93C2432 1459.31 2433.35 1458 2435 1458L2435 1458C2436.66 1458 2438 1459.32 2438 1460.93L2438 1472.06Z" fill="#7C8281" fill-rule="evenodd"/><path d="M2448 1472.06C2448 1473.69 2446.66 1475 2445 1475L2445 1475C2443.35 1475 2442 1473.69 2442 1472.06L2442 1460.93C2442 1459.31 2443.34 1458 2445 1458L2445 1458C2446.65 1458 2448 1459.32 2448 1460.93L2448 1472.06Z" fill="#7C8281" fill-rule="evenodd"/><path d="M2459 1472.06C2459 1473.69 2457.65 1475 2456 1475L2456 1475C2454.35 1475 2453 1473.69 2453 1472.06L2453 1460.93C2453 1459.31 2454.35 1458 2456 1458L2456 1458C2457.65 1458 2459 1459.32 2459 1460.93L2459 1472.06Z" fill="#7C8281" fill-rule="evenodd"/><path d="M2414 1288.99 2422.48 857 2460.64 857 2467 1292.14C2467 1292.14 2438.38 1302.65 2414 1288.99Z" fill="#803B3B" fill-rule="evenodd"/><path d="M2422.71 857.5 2410.09 842.777C2410.09 842.777 2405.89 836.469 2411.14 819.64L2452.14 702.905C2452.14 702.905 2461.6 680.822 2487.87 691.341 2487.87 691.341 2507.84 705.011 2499.43 728.145 2499.43 728.145 2495.23 734.456 2484.72 740.766 2474.21 747.073 2472.11 748.127 2477.36 758.642 2482.62 769.157 2499.43 816.481 2494.18 831.204 2494.18 831.204 2487.87 835.413 2483.67 836.462 2479.46 837.512 2459.49 841.72 2460.54 857.493" stroke="#E28F00" stroke-width="3.15167" stroke-miterlimit="8" fill="#E28F00" fill-rule="evenodd"/><path d="M2422 857 2461 857 2461 868 2422 868Z" fill="#DCE0CF" fill-rule="evenodd"/><path d="M2418 1032 2463 1032 2463 1035 2418 1035Z" fill="#85877D" fill-rule="evenodd"/><path d="M2418 1014 2463 1014 2463 1016 2418 1016Z" fill="#85877D" fill-rule="evenodd"/><path d="M2418 997 2463 997 2463 999 2418 999Z" fill="#85877D" fill-rule="evenodd"/><path d="M2419 980 2463 980 2463 982 2419 982Z" fill="#85877D" fill-rule="evenodd"/><path d="M2419 955 2463 955 2463 957 2419 957Z" fill="#85877D" fill-rule="evenodd"/><path d="M2419 937 2463 937 2463 940.001 2419 940.001Z" fill="#85877D" fill-rule="evenodd"/><path d="M2419 906 2463 906 2463 909 2419 909Z" fill="#85877D" fill-rule="evenodd"/><path d="M2419 883 2463 883 2463 885 2419 885Z" fill="#85877D" fill-rule="evenodd"/><path d="M2418 1074 2464 1074 2464 1077 2418 1077Z" fill="#85877D" fill-rule="evenodd"/><path d="M2418 1055 2464 1055 2464 1058 2418 1058Z" fill="#85877D" fill-rule="evenodd"/><path d="M2418 1094 2463 1094 2463 1097 2418 1097Z" fill="#85877D" fill-rule="evenodd"/><path d="M2418 1126 2465 1126 2465 1130 2418 1130Z" fill="#85877D" fill-rule="evenodd"/><path d="M2416 1149 2466 1149 2466 1153 2416 1153Z" fill="#85877D" fill-rule="evenodd"/><path d="M2415 1170 2466 1170 2466 1175 2415 1175Z" fill="#85877D" fill-rule="evenodd"/><path d="M2415 1200 2466 1200 2466 1204 2415 1204Z" fill="#85877D" fill-rule="evenodd"/><path d="M2415 1185 2466 1185 2466 1190 2415 1190Z" fill="#85877D" fill-rule="evenodd"/><path d="M2415 1228 2466 1228 2466 1233 2415 1233Z" fill="#85877D" fill-rule="evenodd"/><path d="M2415 1214 2466 1214 2466 1218 2415 1218Z" fill="#85877D" fill-rule="evenodd"/><path d="M2415 1240 2466 1240 2466 1245 2415 1245Z" fill="#85877D" fill-rule="evenodd"/><path d="M2415 1254 2466 1254 2466 1259 2415 1259Z" fill="#85877D" fill-rule="evenodd"/><path d="M2415 1269 2466 1269 2466 1274 2415 1274Z" fill="#85877D" fill-rule="evenodd"/><path d="M2444 1263.5C2444 1265.99 2442.21 1268 2440 1268 2437.79 1268 2436 1265.99 2436 1263.5 2436 1261.02 2437.79 1259 2440 1259 2442.21 1259 2444 1261.02 2444 1263.5Z" fill="#4D3535" fill-rule="evenodd"/><path d="M2444 1236.5C2444 1238.99 2442.21 1241 2440 1241 2437.79 1241 2436 1238.98 2436 1236.5 2436 1234.01 2437.79 1232 2440 1232 2442.21 1232 2444 1234.01 2444 1236.5Z" fill="#4D3535" fill-rule="evenodd"/><path d="M2444 1209C2444 1211.22 2442.21 1213 2440 1213 2437.79 1213 2436 1211.21 2436 1209 2436 1206.79 2437.79 1205 2440 1205 2442.21 1205 2444 1206.79 2444 1209Z" fill="#4D3535" fill-rule="evenodd"/><path d="M2444 1179.5C2444 1181.99 2442.21 1184 2440 1184 2437.79 1184 2436 1181.98 2436 1179.5 2436 1177.01 2437.79 1175 2440 1175 2442.21 1175 2444 1177.01 2444 1179.5Z" fill="#4D3535" fill-rule="evenodd"/><path d="M2444 1046C2444 1048.21 2442.21 1050 2440 1050 2437.79 1050 2436 1048.21 2436 1046 2436 1043.79 2437.79 1042 2440 1042 2442.21 1042 2444 1043.79 2444 1046Z" fill="#4D3535" fill-rule="evenodd"/><path d="M2444 1006.5C2444 1008.99 2442.21 1011 2440 1011 2437.79 1011 2436 1008.99 2436 1006.5 2436 1004.01 2437.79 1002 2440 1002 2442.21 1002 2444 1004.01 2444 1006.5Z" fill="#4D3535" fill-rule="evenodd"/><path d="M2444 969.5C2444 971.986 2442.21 974 2440 974 2437.79 974 2436 971.986 2436 969.5 2436 967.014 2437.79 965 2440 965 2442.21 965 2444 967.014 2444 969.5Z" fill="#4D3535" fill-rule="evenodd"/><path d="M2444 926C2444 928.21 2442.21 930 2440 930 2437.79 930 2436 928.207 2436 926 2436 923.79 2437.79 922 2440 922 2442.21 922 2444 923.79 2444 926Z" fill="#4D3535" fill-rule="evenodd"/><path d="M2434 1113C2434 1115.21 2432.21 1117 2430 1117 2427.79 1117 2426 1115.21 2426 1113 2426 1110.79 2427.79 1109 2430 1109 2432.21 1109 2434 1110.79 2434 1113Z" fill="#4D3535" fill-rule="evenodd"/><path d="M2456 1113C2456 1115.21 2454.21 1117 2452 1117 2449.79 1117 2448 1115.21 2448 1113 2448 1110.79 2449.79 1109 2452 1109 2454.21 1109 2456 1110.79 2456 1113Z" fill="#4D3535" fill-rule="evenodd"/><path d="M2423 825 2423 1461" stroke="#524326" stroke-width="1.81276" stroke-miterlimit="8" fill="none" fill-rule="evenodd"/><path d="M2434 795 2434 1461" stroke="#524326" stroke-width="1.81276" stroke-miterlimit="8" fill="none" fill-rule="evenodd"/><path d="M2445 769 2445 1461" stroke="#524326" stroke-width="1.81276" stroke-miterlimit="8" fill="none" fill-rule="evenodd"/><path d="M2456 734 2456 1461" stroke="#524326" stroke-width="1.81276" stroke-miterlimit="8" fill="none" fill-rule="evenodd"/><path d="M2465 728.998C2465 733.419 2461.42 737 2457 737 2452.58 737 2449 733.419 2449 728.998 2449 724.581 2452.58 721 2457 721 2461.42 720.996 2465 724.581 2465 728.998Z" fill="#747875" fill-rule="evenodd"/><path d="M2462 728.998C2462 731.762 2459.76 734 2457 734 2454.24 734 2452 731.762 2452 728.998 2452 726.239 2454.24 724 2457 724 2459.76 724 2462 726.235 2462 728.998Z" fill="#A7ACA8" fill-rule="evenodd"/><path d="M2452 762.498C2452 766.643 2448.42 770 2444 770 2439.58 770 2436 766.643 2436 762.498 2436 758.357 2439.58 755 2444 755 2448.42 755 2452 758.357 2452 762.498Z" fill="#747875" fill-rule="evenodd"/><path d="M2449 763.002C2449 765.762 2446.76 768 2444 768 2441.24 768 2439 765.762 2439 763.002 2439 760.239 2441.24 758 2444 758 2446.76 758 2449 760.239 2449 763.002Z" fill="#A7ACA8" fill-rule="evenodd"/><path d="M2441 790.5C2441 794.646 2437.42 798 2433 798 2428.58 798 2425 794.643 2425 790.5 2425 786.358 2428.58 783 2433 783 2437.42 783 2441 786.358 2441 790.5Z" fill="#747875" fill-rule="evenodd"/><path d="M2438 790.498C2438 792.982 2435.76 795 2433 795 2430.24 795 2428 792.982 2428 790.498 2428 788.015 2430.24 786 2433 786 2435.76 786 2438 788.015 2438 790.498Z" fill="#A7ACA8" fill-rule="evenodd"/><path d="M2431 819.002C2431 823.423 2427.19 827 2422.5 827 2417.81 827 2414 823.419 2414 819.002 2414 814.581 2417.81 811 2422.5 811 2427.19 811 2431 814.581 2431 819.002Z" fill="#747875" fill-rule="evenodd"/><path d="M2428 819C2428 821.761 2425.54 824 2422.5 824 2419.46 824 2417 821.761 2417 819 2417 816.236 2419.46 814 2422.5 814 2425.53 814 2428 816.24 2428 819Z" fill="#A7ACA8" fill-rule="evenodd"/><path d="M2456 1382.49C2456 1389.4 2450.49 1395 2443.69 1395L2426.31 1395C2419.51 1395 2414 1389.4 2414 1382.49L2414 1382.49C2414 1375.6 2419.51 1370 2426.31 1370L2443.69 1370C2450.49 1370 2456 1375.6 2456 1382.49L2456 1382.49Z" fill-rule="evenodd"/><path d="M2470 1406.49C2470 1413.4 2464.49 1419 2457.69 1419L2440.31 1419C2433.51 1419 2428 1413.4 2428 1406.49L2428 1406.49C2428 1399.6 2433.51 1394 2440.31 1394L2457.69 1394C2464.49 1394 2470 1399.6 2470 1406.49L2470 1406.49Z" fill-rule="evenodd"/><path d="M2430 1383.5C2430 1385.43 2428.66 1387 2427 1387 2425.34 1387 2424 1385.43 2424 1383.5 2424 1381.57 2425.34 1380 2427 1380 2428.66 1380 2430 1381.57 2430 1383.5Z" fill="#737062" fill-rule="evenodd"/><path d="M2444 1383.5C2444 1385.43 2442.66 1387 2441 1387 2439.34 1387 2438 1385.43 2438 1383.5 2438 1381.57 2439.34 1380 2441 1380 2442.66 1380 2444 1381.57 2444 1383.5Z" fill="#737062" fill-rule="evenodd"/><path d="M2445 1405C2445 1406.66 2443.66 1408 2442 1408 2440.34 1408 2439 1406.66 2439 1405 2439 1403.34 2440.34 1402 2442 1402 2443.66 1402 2445 1403.34 2445 1405Z" fill="#737062" fill-rule="evenodd"/><path d="M2459 1405C2459 1406.66 2457.66 1408 2456 1408 2454.34 1408 2453 1406.66 2453 1405 2453 1403.34 2454.34 1402 2456 1402 2457.66 1402 2459 1403.34 2459 1405Z" fill="#737062" fill-rule="evenodd"/><path d="M2429 1481 2429 1481 2419 1481 2419 1481 2419 1465 2419 1465 2429 1465 2429 1465Z" fill="#969E9D" fill-rule="evenodd"/><path d="M2440 1481 2440 1481 2430 1481 2430 1481 2430 1465 2430 1465 2440 1465 2440 1465Z" fill="#969E9D" fill-rule="evenodd"/><path d="M2451 1481 2451 1481 2440 1481 2440 1481 2440 1465 2440 1465 2451 1465 2451 1465Z" fill="#969E9D" fill-rule="evenodd"/><path d="M2461 1481 2461 1481 2451 1481 2451 1481 2451 1465 2451 1465 2461 1465 2461 1465Z" fill="#969E9D" fill-rule="evenodd"/></g></svg>
